<?xml version="1.0" encoding="iso-8859-1"?>
<svg version="1.1" id="Layer_1" xmlns="http://www.w3.org/2000/svg" xmlns:xlink="http://www.w3.org/1999/xlink" x="0px" y="0px"
	 viewBox="0 0 512.004 512.004" style="enable-background:new 0 0 512.004 512.004;" xml:space="preserve">
<g>
	<path style="fill:#dceaf4;" d="M256.002,52.966c-73.128,0-132.414-11.855-132.414-26.483v16.772
		c0,59.366,4.193,136.316,12.544,195.09l40.422,256c0,9.754,35.566,17.655,79.448,17.655s79.448-7.901,79.448-17.655l40.422-256
		c8.351-58.774,12.544-135.724,12.544-195.09V26.483C388.416,41.11,329.129,52.966,256.002,52.966"/>
	<path style="fill:#242f53;" d="M377.175,228.205l-0.035-0.106c-33.889,7.194-70.374-2.975-96.724-29.325
		c-41.613-40.978-107.935-41.525-149.063-0.715c1.412,14.001,2.975,27.622,4.776,40.289l40.422,256
		c0,9.746,35.575,17.655,79.448,17.655c43.882,0,79.448-7.91,79.448-17.655l40.422-256
		C376.337,235.082,376.734,231.578,377.175,228.205"/>
	<g>
		<path style="fill:#242f53;" d="M211.864,353.103c0,4.873-3.955,8.828-8.828,8.828c-4.873,0-8.828-3.955-8.828-8.828
			c0-4.873,3.955-8.828,8.828-8.828C207.909,344.276,211.864,348.231,211.864,353.103"/>
		<path style="fill:#242f53;" d="M317.795,432.552c0,4.873-3.955,8.828-8.828,8.828s-8.828-3.955-8.828-8.828
			s3.955-8.828,8.828-8.828S317.795,427.679,317.795,432.552"/>
		<path style="fill:#242f53;" d="M282.485,238.345c0,4.873-5.623,8.828-13.241,8.828c-7.618,0-13.241-3.999-13.241-8.872
			c0-4.882,5.623-8.783,13.241-8.783C276.861,229.517,282.485,233.472,282.485,238.345"/>
	</g>
	<path style="fill:#dceaf4;" d="M388.416,26.483c0,14.627-59.286,26.483-132.414,26.483S123.588,41.11,123.588,26.483
		S182.874,0,256.002,0S388.416,11.855,388.416,26.483"/>
	<g>
		<path style="fill:#242f53;" d="M211.864,282.483h-17.655c-9.737,0-17.655-7.918-17.655-17.655v-17.655
			c0-9.737,7.918-17.655,17.655-17.655h17.655c9.737,0,17.655,7.918,17.655,17.655v17.655
			C229.519,274.564,221.601,282.483,211.864,282.483"/>
		<path style="fill:#242f53;" d="M317.795,344.276H300.14c-9.737,0-17.655-7.918-17.655-17.655v-17.655
			c0-9.737,7.918-17.655,17.655-17.655h17.655c9.737,0,17.655,7.918,17.655,17.655v17.655
			C335.45,336.358,327.532,344.276,317.795,344.276"/>
		<path style="fill:#242f53;" d="M229.519,432.552h-17.655c-9.737,0-17.655-7.918-17.655-17.655v-17.655
			c0-9.737,7.918-17.655,17.655-17.655h17.655c9.737,0,17.655,7.918,17.655,17.655v17.655
			C247.174,424.633,239.256,432.552,229.519,432.552"/>
	</g>
</g>
</svg>
